{
  "accessors": [
    {
      "bufferView": 2,
      "componentType": 5126,
      "count": 65532,
      "max": [
        3.1199870109558105,
        4.393746852874756,
        2.4285593032836914
      ],
      "min": [
        -3.264414072036743,
        -4.132954120635986,
        -2.742190361022949
      ],
      "type": "VEC3"
    },
    {
      "bufferView": 2,
      "byteOffset": 786384,
      "componentType": 5126,
      "count": 65532,
      "max": [
        0.999998152256012,
        0.9999988079071045,
        0.9999948143959045
      ],
      "min": [
        -0.9999879002571106,
        -0.9999926686286926,
        -1.0
      ],
      "type": "VEC3"
    },
    {
      "bufferView": 1,
      "componentType": 5126,
      "count": 65532,
      "max": [
        0.9963669180870056,
        0.9997624158859253
      ],
      "min": [
        9.300008969148621e-05,
        0.01931403949856758
      ],
      "type": "VEC2"
    },
    {
      "bufferView": 0,
      "componentType": 5125,
      "count": 312054,
      "type": "SCALAR"
    },
    {
      "bufferView": 2,
      "byteOffset": 1572768,
      "componentType": 5126,
      "count": 65532,
      "max": [
        4.5993971824646,
        5.8654303550720215,
        2.4951298236846924
      ],
      "min": [
        -3.0485432147979736,
        -4.785468101501465,
        -2.6663389205932617
      ],
      "type": "VEC3"
    },
    {
      "bufferView": 2,
      "byteOffset": 2359152,
      "componentType": 5126,
      "count": 65532,
      "max": [
        0.9999995827674866,
        0.999998152256012,
        0.9999806880950928
      ],
      "min": [
        -0.9999971389770508,
        -0.9999885559082031,
        -0.9999998807907104
      ],
      "type": "VEC3"
    },
    {
      "bufferView": 1,
      "byteOffset": 524256,
      "componentType": 5126,
      "count": 65532,
      "max": [
        0.9975699186325073,
        0.9996436834335327
      ],
      "min": [
        0.003172958269715309,
        0.00390625
      ],
      "type": "VEC2"
    },
    {
      "bufferView": 0,
      "byteOffset": 1248216,
      "componentType": 5125,
      "count": 326772,
      "type": "SCALAR"
    },
    {
      "bufferView": 2,
      "byteOffset": 3145536,
      "componentType": 5126,
      "count": 65532,
      "max": [
        4.6041693687438965,
        5.848637580871582,
        2.872403621673584
      ],
      "min": [
        -4.420010089874268,
        -5.792623519897461,
        -1.628282904624939
      ],
      "type": "VEC3"
    },
    {
      "bufferView": 2,
      "byteOffset": 3931920,
      "componentType": 5126,
      "count": 65532,
      "max": [
        0.9999995827674866,
        0.9999969005584717,
        0.9993491768836975
      ],
      "min": [
        -0.999992311000824,
        -0.9998063445091248,
        -0.9999999403953552
      ],
      "type": "VEC3"
    },
    {
      "bufferView": 1,
      "byteOffset": 1048512,
      "componentType": 5126,
      "count": 65532,
      "max": [
        0.9963608384132385,
        0.9993113279342651
      ],
      "min": [
        0.004027269780635834,
        0.004217346198856831
      ],
      "type": "VEC2"
    },
    {
      "bufferView": 0,
      "byteOffset": 2555304,
      "componentType": 5125,
      "count": 321777,
      "type": "SCALAR"
    },
    {
      "bufferView": 2,
      "byteOffset": 4718304,
      "componentType": 5126,
      "count": 65532,
      "max": [
        -0.1108633279800415,
        4.4433441162109375,
        2.8001060485839844
      ],
      "min": [
        -4.41895866394043,
        -4.617059230804443,
        -1.530178427696228
      ],
      "type": "VEC3"
    },
    {
      "bufferView": 2,
      "byteOffset": 5504688,
      "componentType": 5126,
      "count": 65532,
      "max": [
        0.9999997019767761,
        0.9998949766159058,
        0.9999182224273682
      ],
      "min": [
        -0.9999984502792358,
        -0.9999959468841553,
        -0.9999998807907104
      ],
      "type": "VEC3"
    },
    {
      "bufferView": 1,
      "byteOffset": 1572768,
      "componentType": 5126,
      "count": 65532,
      "max": [
        0.9956307411193848,
        0.9990643858909607
      ],
      "min": [
        0.00033272895961999893,
        0.00502201821655035
      ],
      "type": "VEC2"
    },
    {
      "bufferView": 0,
      "byteOffset": 3842412,
      "componentType": 5125,
      "count": 328530,
      "type": "SCALAR"
    },
    {
      "bufferView": 2,
      "byteOffset": 6291072,
      "componentType": 5126,
      "count": 65532,
      "max": [
        4.409477233886719,
        0.2945752739906311,
        2.638120174407959
      ],
      "min": [
        -4.3988037109375,
        -5.814041614532471,
        -1.475541353225708
      ],
      "type": "VEC3"
    },
    {
      "bufferView": 2,
      "byteOffset": 7077456,
      "componentType": 5126,
      "count": 65532,
      "max": [
        0.9999997615814209,
        0.9997593760490417,
        0.9999768733978271
      ],
      "min": [
        -0.9999996423721313,
        -0.999943733215332,
        -1.0
      ],
      "type": "VEC3"
    },
    {
      "bufferView": 1,
      "byteOffset": 2097024,
      "componentType": 5126,
      "count": 65532,
      "max": [
        0.9965993165969849,
        0.9993783831596375
      ],
      "min": [
        0.00022248271852731705,
        0.003906250931322575
      ],
      "type": "VEC2"
    },
    {
      "bufferView": 0,
      "byteOffset": 5156532,
      "componentType": 5125,
      "count": 330819,
      "type": "SCALAR"
    },
    {
      "bufferView": 2,
      "byteOffset": 7863840,
      "componentType": 5126,
      "count": 65532,
      "max": [
        1.5736111402511597,
        4.38262414932251,
        2.6203324794769287
      ],
      "min": [
        -4.3989057540893555,
        -5.807952880859375,
        -3.016115188598633
      ],
      "type": "VEC3"
    },
    {
      "bufferView": 2,
      "byteOffset": 8650224,
      "componentType": 5126,
      "count": 65532,
      "max": [
        0.9999987483024597,
        0.9999924302101135,
        0.9999484419822693
      ],
      "min": [
        -0.9999974370002747,
        -0.9999994039535522,
        -0.9999966025352478
      ],
      "type": "VEC3"
    },
    {
      "bufferView": 1,
      "byteOffset": 2621280,
      "componentType": 5126,
      "count": 65532,
      "max": [
        0.997604250907898,
        0.9997767210006714
      ],
      "min": [
        9.566755034029484e-05,
        0.006721877958625555
      ],
      "type": "VEC2"
    },
    {
      "bufferView": 0,
      "byteOffset": 6479808,
      "componentType": 5125,
      "count": 269319,
      "type": "SCALAR"
    },
    {
      "bufferView": 2,
      "byteOffset": 9436608,
      "componentType": 5126,
      "count": 65532,
      "max": [
        4.573265552520752,
        5.841872215270996,
        2.4349119663238525
      ],
      "min": [
        -1.7774834632873535,
        0.15152333676815033,
        -2.7013702392578125
      ],
      "type": "VEC3"
    },
    {
      "bufferView": 2,
      "byteOffset": 10222992,
      "componentType": 5126,
      "count": 65532,
      "max": [
        0.9999969005584717,
        0.9999853372573853,
        0.9999513626098633
      ],
      "min": [
        -0.9999922513961792,
        -0.9999945759773254,
        -0.9999995231628418
      ],
      "type": "VEC3"
    },
    {
      "bufferView": 1,
      "byteOffset": 3145536,
      "componentType": 5126,
      "count": 65532,
      "max": [
        0.9973719716072083,
        0.9997624158859253
      ],
      "min": [
        0.00011418061330914497,
        0.00390625
      ],
      "type": "VEC2"
    },
    {
      "bufferView": 0,
      "byteOffset": 7557084,
      "componentType": 5125,
      "count": 268812,
      "type": "SCALAR"
    },
    {
      "bufferView": 2,
      "byteOffset": 11009376,
      "componentType": 5126,
      "count": 65532,
      "max": [
        3.967857599258423,
        5.862331390380859,
        2.6812174320220947
      ],
      "min": [
        -3.61655330657959,
        0.19363389909267426,
        -1.2580722570419312
      ],
      "type": "VEC3"
    },
    {
      "bufferView": 2,
      "byteOffset": 11795760,
      "componentType": 5126,
      "count": 65532,
      "max": [
        0.9999929070472717,
        0.9999969005584717,
        0.9999610185623169
      ],
      "min": [
        -0.9999989867210388,
        -0.9999885559082031,
        -0.9999998807907104
      ],
      "type": "VEC3"
    },
    {
      "bufferView": 1,
      "byteOffset": 3669792,
      "componentType": 5126,
      "count": 65532,
      "max": [
        0.997042179107666,
        0.999765932559967
      ],
      "min": [
        0.00012963282642886043,
        0.02020205557346344
      ],
      "type": "VEC2"
    },
    {
      "bufferView": 0,
      "byteOffset": 8632332,
      "componentType": 5125,
      "count": 253971,
      "type": "SCALAR"
    },
    {
      "bufferView": 2,
      "byteOffset": 12582144,
      "componentType": 5126,
      "count": 65532,
      "max": [
        4.573446273803711,
        5.837621688842773,
        2.9388136863708496
      ],
      "min": [
        -4.425091743469238,
        -5.807385444641113,
        -1.5978049039840698
      ],
      "type": "VEC3"
    },
    {
      "bufferView": 2,
      "byteOffset": 13368528,
      "componentType": 5126,
      "count": 65532,
      "max": [
        0.9999997615814209,
        0.9999926686286926,
        0.9999889731407166
      ],
      "min": [
        -0.9999994039535522,
        -0.9999925494194031,
        -1.0
      ],
      "type": "VEC3"
    },
    {
      "bufferView": 1,
      "byteOffset": 4194048,
      "componentType": 5126,
      "count": 65532,
      "max": [
        0.9973041415214539,
        0.99976646900177
      ],
      "min": [
        0.00014396333426702768,
        0.00390625
      ],
      "type": "VEC2"
    },
    {
      "bufferView": 0,
      "byteOffset": 9648216,
      "componentType": 5125,
      "count": 257961,
      "type": "SCALAR"
    },
    {
      "bufferView": 2,
      "byteOffset": 14154912,
      "componentType": 5126,
      "count": 65532,
      "max": [
        4.583259582519531,
        0.06096864491701126,
        2.6442131996154785
      ],
      "min": [
        -4.392560958862305,
        -5.824378490447998,
        -1.5235263109207153
      ],
      "type": "VEC3"
    },
    {
      "bufferView": 2,
      "byteOffset": 14941296,
      "componentType": 5126,
      "count": 65532,
      "max": [
        0.9999995827674866,
        0.9999586939811707,
        0.99998539686203
      ],
      "min": [
        -0.9999967813491821,
        -0.9999967217445374,
        -1.0
      ],
      "type": "VEC3"
    },
    {
      "bufferView": 1,
      "byteOffset": 4718304,
      "componentType": 5126,
      "count": 65532,
      "max": [
        0.9975525140762329,
        0.9997365474700928
      ],
      "min": [
        0.00012451913789846003,
        0.00390625
      ],
      "type": "VEC2"
    },
    {
      "bufferView": 0,
      "byteOffset": 10680060,
      "componentType": 5125,
      "count": 235923,
      "type": "SCALAR"
    },
    {
      "bufferView": 2,
      "byteOffset": 15727680,
      "componentType": 5126,
      "count": 43363,
      "max": [
        -0.2259451299905777,
        4.144649982452393,
        2.6880273818969727
      ],
      "min": [
        -4.417050838470459,
        -2.3458738327026367,
        -1.6724653244018555
      ],
      "type": "VEC3"
    },
    {
      "bufferView": 2,
      "byteOffset": 16248036,
      "componentType": 5126,
      "count": 43363,
      "max": [
        0.9999882578849792,
        0.9999897480010986,
        0.999727189540863
      ],
      "min": [
        -0.9999983906745911,
        -0.9999945759773254,
        -0.9999982714653015
      ],
      "type": "VEC3"
    },
    {
      "bufferView": 1,
      "byteOffset": 5242560,
      "componentType": 5126,
      "count": 43363,
      "max": [
        0.997002124786377,
        0.99977707862854
      ],
      "min": [
        0.00012688391143456101,
        0.0041750576347112656
      ],
      "type": "VEC2"
    },
    {
      "bufferView": 0,
      "byteOffset": 11623752,
      "componentType": 5125,
      "count": 160356,
      "type": "SCALAR"
    }
  ],
  "asset": {
    "extras": {
      "author": "Frank McMains (https://sketchfab.com/frankmcmains)",
      "license": "CC-BY-4.0 (http://creativecommons.org/licenses/by/4.0/)",
      "source": "https://sketchfab.com/3d-models/bunge-silos-f56b660123b542d6b979f775ab157175",
      "title": "Bunge Silos"
    },
    "generator": "Sketchfab-12.68.0",
    "version": "2.0"
  },
  "bufferViews": [
    {
      "buffer": 0,
      "byteLength": 12265176,
      "name": "floatBufferViews",
      "target": 34963
    },
    {
      "buffer": 0,
      "byteLength": 5589464,
      "byteOffset": 12265176,
      "byteStride": 8,
      "name": "floatBufferViews",
      "target": 34962
    },
    {
      "buffer": 0,
      "byteLength": 16768392,
      "byteOffset": 17854640,
      "byteStride": 12,
      "name": "floatBufferViews",
      "target": 34962
    }
  ],
  "buffers": [
    {
      "byteLength": 34623032,
      "uri": "scene.bin"
    }
  ],
  "images": [
    {
      "uri": "textures/material0_baseColor.jpeg"
    }
  ],
  "materials": [
    {
      "doubleSided": true,
      "name": "material0",
      "pbrMetallicRoughness": {
        "baseColorTexture": {
          "index": 0
        },
        "metallicFactor": 0.0,
        "roughnessFactor": 0.9577051494623774
      }
    }
  ],
  "meshes": [
    {
      "name": "Model_material0_0",
      "primitives": [
        {
          "attributes": {
            "NORMAL": 1,
            "POSITION": 0,
            "TEXCOORD_0": 2
          },
          "indices": 3,
          "material": 0,
          "mode": 4
        }
      ]
    },
    {
      "name": "Model_material0_0",
      "primitives": [
        {
          "attributes": {
            "NORMAL": 5,
            "POSITION": 4,
            "TEXCOORD_0": 6
          },
          "indices": 7,
          "material": 0,
          "mode": 4
        }
      ]
    },
    {
      "name": "Model_material0_0",
      "primitives": [
        {
          "attributes": {
            "NORMAL": 9,
            "POSITION": 8,
            "TEXCOORD_0": 10
          },
          "indices": 11,
          "material": 0,
          "mode": 4
        }
      ]
    },
    {
      "name": "Model_material0_0",
      "primitives": [
        {
          "attributes": {
            "NORMAL": 13,
            "POSITION": 12,
            "TEXCOORD_0": 14
          },
          "indices": 15,
          "material": 0,
          "mode": 4
        }
      ]
    },
    {
      "name": "Model_material0_0",
      "primitives": [
        {
          "attributes": {
            "NORMAL": 17,
            "POSITION": 16,
            "TEXCOORD_0": 18
          },
          "indices": 19,
          "material": 0,
          "mode": 4
        }
      ]
    },
    {
      "name": "Model_material0_0",
      "primitives": [
        {
          "attributes": {
            "NORMAL": 21,
            "POSITION": 20,
            "TEXCOORD_0": 22
          },
          "indices": 23,
          "material": 0,
          "mode": 4
        }
      ]
    },
    {
      "name": "Model_material0_0",
      "primitives": [
        {
          "attributes": {
            "NORMAL": 25,
            "POSITION": 24,
            "TEXCOORD_0": 26
          },
          "indices": 27,
          "material": 0,
          "mode": 4
        }
      ]
    },
    {
      "name": "Model_material0_0",
      "primitives": [
        {
          "attributes": {
            "NORMAL": 29,
            "POSITION": 28,
            "TEXCOORD_0": 30
          },
          "indices": 31,
          "material": 0,
          "mode": 4
        }
      ]
    },
    {
      "name": "Model_material0_0",
      "primitives": [
        {
          "attributes": {
            "NORMAL": 33,
            "POSITION": 32,
            "TEXCOORD_0": 34
          },
          "indices": 35,
          "material": 0,
          "mode": 4
        }
      ]
    },
    {
      "name": "Model_material0_0",
      "primitives": [
        {
          "attributes": {
            "NORMAL": 37,
            "POSITION": 36,
            "TEXCOORD_0": 38
          },
          "indices": 39,
          "material": 0,
          "mode": 4
        }
      ]
    },
    {
      "name": "Model_material0_0",
      "primitives": [
        {
          "attributes": {
            "NORMAL": 41,
            "POSITION": 40,
            "TEXCOORD_0": 42
          },
          "indices": 43,
          "material": 0,
          "mode": 4
        }
      ]
    }
  ],
  "nodes": [
    {
      "children": [
        1
      ],
      "matrix": [
        1.0,
        0.0,
        0.0,
        0.0,
        0.0,
        2.220446049250313e-16,
        -1.0,
        0.0,
        0.0,
        1.0,
        2.220446049250313e-16,
        0.0,
        0.0,
        0.0,
        0.0,
        1.0
      ],
      "name": "Sketchfab_model"
    },
    {
      "children": [
        2
      ],
      "matrix": [
        1.0,
        0.0,
        0.0,
        0.0,
        0.0,
        -1.0,
        0.0,
        0.0,
        0.0,
        0.0,
        -1.0,
        0.0,
        0.0,
        0.0,
        0.0,
        1.0
      ],
      "name": "model.fbx"
    },
    {
      "children": [
        3
      ],
      "name": "RootNode"
    },
    {
      "children": [
        4,
        5,
        6,
        7,
        8,
        9,
        10,
        11,
        12,
        13,
        14
      ],
      "name": "Model"
    },
    {
      "mesh": 0,
      "name": "Model_material0_0"
    },
    {
      "mesh": 1,
      "name": "Model_material0_0"
    },
    {
      "mesh": 2,
      "name": "Model_material0_0"
    },
    {
      "mesh": 3,
      "name": "Model_material0_0"
    },
    {
      "mesh": 4,
      "name": "Model_material0_0"
    },
    {
      "mesh": 5,
      "name": "Model_material0_0"
    },
    {
      "mesh": 6,
      "name": "Model_material0_0"
    },
    {
      "mesh": 7,
      "name": "Model_material0_0"
    },
    {
      "mesh": 8,
      "name": "Model_material0_0"
    },
    {
      "mesh": 9,
      "name": "Model_material0_0"
    },
    {
      "mesh": 10,
      "name": "Model_material0_0"
    }
  ],
  "samplers": [
    {
      "magFilter": 9729,
      "minFilter": 9987,
      "wrapS": 10497,
      "wrapT": 10497
    }
  ],
  "scene": 0,
  "scenes": [
    {
      "name": "Sketchfab_Scene",
      "nodes": [
        0
      ]
    }
  ],
  "textures": [
    {
      "sampler": 0,
      "source": 0
    }
  ]
}
